HIERARCHY
ROOT Hips
{
  OFFSET 0 0 0
  CHANNELS 6 Xposition Yposition Zposition Zrotation Xrotation Yrotation
  JOINT Spine
  {
    OFFSET 0 10.1816 0.131521
    CHANNELS 3 Zrotation Xrotation Yrotation
    JOINT Spine1
    {
      OFFSET 0 10.0835 -1.00081
      CHANNELS 3 Zrotation Xrotation Yrotation
      JOINT Spine2
      {
        OFFSET 0 9.1 -1.37342
        CHANNELS 3 Zrotation Xrotation Yrotation
        JOINT Neck
        {
          OFFSET 0 16.6717 -2.51617
          CHANNELS 3 Zrotation Xrotation Yrotation
          JOINT Head
          {
            OFFSET 0 9.61787 1.68501
            CHANNELS 3 Zrotation Xrotation Yrotation
            JOINT HeadTop_End
            {
              OFFSET 0 17.8152 2.58499
              CHANNELS 3 Zrotation Xrotation Yrotation
              End Site
              {
                OFFSET 0 0 0
              }
            }
            JOINT LeftEye
            {
              OFFSET 3.06756 6.40951 9.28355
              CHANNELS 3 Zrotation Xrotation Yrotation
              End Site
              {
                OFFSET 0 0 0
              }
            }
            JOINT RightEye
            {
              OFFSET -3.06755 6.4095 9.28355
              CHANNELS 3 Zrotation Xrotation Yrotation
              End Site
              {
                OFFSET 0 0 0
              }
            }
          }
        }
        JOINT LeftShoulder
        {
          OFFSET 4.57045 10.946 -2.62799
          CHANNELS 3 Zrotation Xrotation Yrotation
          JOINT LeftArm
          {
            OFFSET 10.5924 -0.524597 -2.23212
            CHANNELS 3 Zrotation Xrotation Yrotation
            JOINT LeftForeArm
            {
              OFFSET 27.8415 -0.000117739 8.70806e-05
              CHANNELS 3 Zrotation Xrotation Yrotation
              JOINT LeftHand
              {
                OFFSET 28.3288 -3.04892e-05 3.47247e-05
                CHANNELS 3 Zrotation Xrotation Yrotation
                JOINT LeftHandThumb1
                {
                  OFFSET 2.46613 -1.57504 2.68241
                  CHANNELS 3 Zrotation Xrotation Yrotation
                  JOINT LeftHandThumb2
                  {
                    OFFSET 3.22981 -1.86469 1.86468
                    CHANNELS 3 Zrotation Xrotation Yrotation
                    JOINT LeftHandThumb3
                    {
                      OFFSET 2.65257 -1.53149 1.53147
                      CHANNELS 3 Zrotation Xrotation Yrotation
                      JOINT LeftHandThumb4
                      {
                        OFFSET 1.95457 -1.12851 1.12849
                        CHANNELS 3 Zrotation Xrotation Yrotation
                        End Site
                        {
                          OFFSET 0 0 0
                        }
                      }
                    }
                  }
                }
                JOINT LeftHandIndex1
                {
                  OFFSET 9.1093 -0.517075 2.26007
                  CHANNELS 3 Zrotation Xrotation Yrotation
                  JOINT LeftHandIndex2
                  {
                    OFFSET 3.67641 -1.52551e-05 2.85811e-05
                    CHANNELS 3 Zrotation Xrotation Yrotation
                    JOINT LeftHandIndex3
                    {
                      OFFSET 2.88306 4.24836e-05 -4.30737e-05
                      CHANNELS 3 Zrotation Xrotation Yrotation
                      JOINT LeftHandIndex4
                      {
                        OFFSET 2.39272 3.2663e-05 3.4003e-05
                        CHANNELS 3 Zrotation Xrotation Yrotation
                        End Site
                        {
                          OFFSET 0 0 0
                        }
                      }
                    }
                  }
                }
                JOINT LeftHandMiddle1
                {
                  OFFSET 9.5334 -3.0508e-05 1.2993e-05
                  CHANNELS 3 Zrotation Xrotation Yrotation
                  JOINT LeftHandMiddle2
                  {
                    OFFSET 3.69823 0 1.76108e-05
                    CHANNELS 3 Zrotation Xrotation Yrotation
                    JOINT LeftHandMiddle3
                    {
                      OFFSET 2.95092 -3.05146e-05 1.62831e-05
                      CHANNELS 3 Zrotation Xrotation Yrotation
                      JOINT LeftHandMiddle4
                      {
                        OFFSET 2.8339 -4.57735e-05 -1.04036e-05
                        CHANNELS 3 Zrotation Xrotation Yrotation
                        End Site
                        {
                          OFFSET 0 0 0
                        }
                      }
                    }
                  }
                }
                JOINT LeftHandRing1
                {
                  OFFSET 9.10452 -0.04393 -1.86509
                  CHANNELS 3 Zrotation Xrotation Yrotation
                  JOINT LeftHandRing2
                  {
                    OFFSET 3.15403 -1.52556e-05 0
                    CHANNELS 3 Zrotation Xrotation Yrotation
                    JOINT LeftHandRing3
                    {
                      OFFSET 2.93767 -4.57734e-05 0
                      CHANNELS 3 Zrotation Xrotation Yrotation
                      JOINT LeftHandRing4
                      {
                        OFFSET 2.64745 -4.57737e-05 0
                        CHANNELS 3 Zrotation Xrotation Yrotation
                        End Site
                        {
                          OFFSET 0 0 0
                        }
                      }
                    }
                  }
                }
                JOINT LeftHandPinky1
                {
                  OFFSET 8.07777 -0.488663 -3.80607
                  CHANNELS 3 Zrotation Xrotation Yrotation
                  JOINT LeftHandPinky2
                  {
                    OFFSET 3.60004 0 -2.62447e-05
                    CHANNELS 3 Zrotation Xrotation Yrotation
                    JOINT LeftHandPinky3
                    {
                      OFFSET 2.11421 1.52588e-05 0
                      CHANNELS 3 Zrotation Xrotation Yrotation
                      JOINT LeftHandPinky4
                      {
                        OFFSET 1.97568 1.4259e-05 -4.41409e-05
                        CHANNELS 3 Zrotation Xrotation Yrotation
                        End Site
                        {
                          OFFSET 0 0 0
                        }
                      }
                    }
                  }
                }
              }
            }
          }
        }
        JOINT RightShoulder
        {
          OFFSET -4.56997 10.9462 -2.62802
          CHANNELS 3 Zrotation Xrotation Yrotation
          JOINT RightArm
          {
            OFFSET -10.5928 -0.524796 -2.2321
            CHANNELS 3 Zrotation Xrotation Yrotation
            JOINT RightForeArm
            {
              OFFSET -27.8415 -3.05176e-05 1.19209e-05
              CHANNELS 3 Zrotation Xrotation Yrotation
              JOINT RightHand
              {
                OFFSET -28.3288 0 5.57899e-05
                CHANNELS 3 Zrotation Xrotation Yrotation
                JOINT RightHandPinky1
                {
                  OFFSET -8.07668 -0.488464 -3.80601
                  CHANNELS 3 Zrotation Xrotation Yrotation
                  JOINT RightHandPinky2
                  {
                    OFFSET -3.60003 4.57764e-05 5.05447e-05
                    CHANNELS 3 Zrotation Xrotation Yrotation
                    JOINT RightHandPinky3
                    {
                      OFFSET -2.11421 1.52588e-05 1.52588e-05
                      CHANNELS 3 Zrotation Xrotation Yrotation
                      JOINT RightHandPinky4
                      {
                        OFFSET -1.97569 -3.05176e-05 0
                        CHANNELS 3 Zrotation Xrotation Yrotation
                        End Site
                        {
                          OFFSET 0 0 0
                        }
                      }
                    }
                  }
                }
                JOINT RightHandRing1
                {
                  OFFSET -9.10358 -0.0439148 -1.86507
                  CHANNELS 3 Zrotation Xrotation Yrotation
                  JOINT RightHandRing2
                  {
                    OFFSET -3.15403 1.52588e-05 4.86374e-05
                    CHANNELS 3 Zrotation Xrotation Yrotation
                    JOINT RightHandRing3
                    {
                      OFFSET -2.93768 -3.05176e-05 -3.95775e-05
                      CHANNELS 3 Zrotation Xrotation Yrotation
                      JOINT RightHandRing4
                      {
                        OFFSET -2.64745 1.52588e-05 0
                        CHANNELS 3 Zrotation Xrotation Yrotation
                        End Site
                        {
                          OFFSET 0 0 0
                        }
                      }
                    }
                  }
                }
                JOINT RightHandMiddle1
                {
                  OFFSET -9.5325 -1.52588e-05 1.71661e-05
                  CHANNELS 3 Zrotation Xrotation Yrotation
                  JOINT RightHandMiddle2
                  {
                    OFFSET -3.69823 1.52588e-05 -2.28882e-05
                    CHANNELS 3 Zrotation Xrotation Yrotation
                    JOINT RightHandMiddle3
                    {
                      OFFSET -2.95093 0 0
                      CHANNELS 3 Zrotation Xrotation Yrotation
                      JOINT RightHandMiddle4
                      {
                        OFFSET -2.8339 0 5.29289e-05
                        CHANNELS 3 Zrotation Xrotation Yrotation
                        End Site
                        {
                          OFFSET 0 0 0
                        }
                      }
                    }
                  }
                }
                JOINT RightHandIndex1
                {
                  OFFSET -9.10828 -0.5168 2.26012
                  CHANNELS 3 Zrotation Xrotation Yrotation
                  JOINT RightHandIndex2
                  {
                    OFFSET -3.67641 3.05176e-05 3.19481e-05
                    CHANNELS 3 Zrotation Xrotation Yrotation
                    JOINT RightHandIndex3
                    {
                      OFFSET -2.88306 -4.57764e-05 4.1008e-05
                      CHANNELS 3 Zrotation Xrotation Yrotation
                      JOINT RightHandIndex4
                      {
                        OFFSET -2.39272 1.52588e-05 2.81334e-05
                        CHANNELS 3 Zrotation Xrotation Yrotation
                        End Site
                        {
                          OFFSET 0 0 0
                        }
                      }
                    }
                  }
                }
                JOINT RightHandThumb1
                {
                  OFFSET -2.46481 -1.57272 2.68263
                  CHANNELS 3 Zrotation Xrotation Yrotation
                  JOINT RightHandThumb2
                  {
                    OFFSET -3.22977 -1.8647 1.86472
                    CHANNELS 3 Zrotation Xrotation Yrotation
                    JOINT RightHandThumb3
                    {
                      OFFSET -2.6526 -1.53145 1.53145
                      CHANNELS 3 Zrotation Xrotation Yrotation
                      JOINT RightHandThumb4
                      {
                        OFFSET -1.95458 -1.12846 1.12851
                        CHANNELS 3 Zrotation Xrotation Yrotation
                        End Site
                        {
                          OFFSET 0 0 0
                        }
                      }
                    }
                  }
                }
              }
            }
          }
        }
      }
    }
  }
  JOINT LeftUpLeg
  {
    OFFSET 8.20778 -6.75172 -1.59956
    CHANNELS 3 Zrotation Xrotation Yrotation
    JOINT LeftLeg
    {
      OFFSET 0 -44.3705 0.284636
      CHANNELS 3 Zrotation Xrotation Yrotation
      JOINT LeftFoot
      {
        OFFSET 0 -44.4279 -2.98219
        CHANNELS 3 Zrotation Xrotation Yrotation
        JOINT LeftToeBase
        {
          OFFSET 0 -8.72867 10.7106
          CHANNELS 3 Zrotation Xrotation Yrotation
          End Site
          {
            OFFSET 0 -0.000676683 9.27814
          }
        }
      }
    }
  }
  JOINT RightUpLeg
  {
    OFFSET -8.2078 -6.75166 -1.59956
    CHANNELS 3 Zrotation Xrotation Yrotation
    JOINT RightLeg
    {
      OFFSET 0 -44.3705 0.286159
      CHANNELS 3 Zrotation Xrotation Yrotation
      JOINT RightFoot
      {
        OFFSET 0 -44.4277 -2.98379
        CHANNELS 3 Zrotation Xrotation Yrotation
        JOINT RightToeBase
        {
          OFFSET 0 -8.72867 10.7106
          CHANNELS 3 Zrotation Xrotation Yrotation
          End Site
          {
            OFFSET 0 -0.000676369 9.27812
          }
        }
      }
    }
  }
}
MOTION
Frames:	4
Frame Time:	0.0333333
-22.5248 251.808 350.73 -53.1861 36.5221 9.07333 -2.97257 18.0216 11.6588 0.232926 22.4558 19.2029 1.06531 23.1856 18.1278 1.5898 4.01094 -5.31156 -0.318862 3.7204 -14.9556 3.18055e-15 0 3.18055e-15 3.18055e-15 0 3.18055e-15 3.18055e-15 0 3.18055e-15 -9.05482 0.945803 -1.18797 -20.3156 -28.7956 -51.9775 0.446951 0.346986 -54.0849 72.8345 2.59869 -28.1592 4.79843 1.26183 -10.9743 3.10071 -2.32985 0.730605 -7.56704e-05 4.47266e-16 -7.13099e-05 1.98785e-16 7.45443e-16 -7.95139e-16 5.43936 2.66714 -7.98673 -0.444155 -0.00239401 0.500575 5.96354e-16 1.54213e-15 2.48481e-17 -1.98785e-16 1.54058e-15 7.45443e-17 9.97176 -0.591699 -1.17002 -2.33465 -0.023682 0.30798 -7.95139e-16 -4.96962e-16 -7.95139e-16 -3.97569e-16 -4.72114e-16 7.95139e-16 3.49015 -8.52095 6.80045 0.000313668 0.00287839 -0.451519 1.98785e-16 2.88238e-15 1.59028e-15 -1.19271e-15 3.13086e-15 -1.59028e-15 8.94996 -4.87371 19.5464 -1.93096 0.753859 -8.14898 -3.97569e-16 2.5842e-15 -3.18055e-15 1.98785e-16 2.48481e-15 -6.36111e-15 11.4042 1.10762 4.56169 8.91107 -13.273 58.0873 -0.00326391 -0.0390298 23.9114 -104.962 -18.816 -0.157769 -15.9216 1.2808 -21.1301 1.86553 0.122789 3.2426 -9.54166e-15 -3.18055e-15 -3.18055e-15 -3.18055e-15 3.18055e-15 -3.18055e-15 -11.6077 4.85684 -10.4186 -0.00011977 -0.00638671 0.324162 1.32417e-31 2.38542e-15 -3.18055e-15 -3.18055e-15 7.95139e-16 -0 -14.4347 -2.62779 -3.97167 0.0335002 -0.000634334 -0.359161 2.77404e-20 7.95139e-16 -0.0019989 0 0 -1.59028e-15 -7.82414 -5.61784 14.47 -0.000765661 0.275607 1.66492 0 7.95139e-16 -0 1.10348e-32 -3.97569e-16 1.59028e-15 -11.7803 -9.14471 20.8099 -1.78468 -0.730263 -0.499292 -0.00121682 -6.36111e-15 -0.00120787 -3.18055e-15 -7.95139e-16 -0 64.8425 -42.5183 56.2282 -1.11816 45.455 2.27874 9.19639 -5.6688 -0.084655 3.54029 7.89867 2.24035 -77.17 -66.3322 -105.128 168.445 74.7429 -168.752 7.45979 -37.8523 12.222 0.259678 -8.65377 0.076001 
-26.5747 252.568 351.536 -54.4235 29.8219 10.4295 -4.68918 19.4442 11.8337 -1.20313 25.2383 21.7318 -0.706356 26.2201 20.3386 6.03413 6.82257 -5.94141 -4.04623 0.672348 -13.6226 -9.54166e-15 -6.36111e-15 1.59028e-15 -9.54166e-15 -6.36111e-15 1.59028e-15 -9.54166e-15 -6.36111e-15 1.59028e-15 -14.0962 2.1738 -5.84672 -11.3641 -41.6755 -50.595 0.263361 0.567994 -54.881 67.1141 4.38917 -28.9158 6.69804 2.94411 -11.5102 3.10037 -2.32987 0.730686 -7.63524e-05 1.2424e-16 -6.33215e-05 -1.41383e-32 -1.01877e-15 -7.95139e-16 5.31878 2.60052 -9.21713 -0.127316 -0.000455349 0.49551 2.26299e-33 3.26131e-16 -3.97569e-16 1.08839e-33 3.13707e-16 -1.98785e-16 10.244 -0.642234 -2.06256 -2.05396 -0.0224181 0.331175 3.97569e-16 1.63997e-15 7.95139e-16 3.97569e-16 -9.93923e-17 -0 3.20388 -8.30393 6.69172 0.000185075 0.00210239 -0.441824 7.95139e-16 3.97569e-15 -3.18055e-15 -3.97569e-16 8.44835e-16 -1.59028e-15 8.89423 -4.82136 19.3259 -1.63241 0.737681 -8.14834 5.96354e-16 5.1684e-15 3.18055e-15 -3.97569e-16 5.46658e-15 3.18055e-15 15.3395 2.42068 10.4698 6.50728 -20.1993 48.1309 0.0505854 0.0159589 38.2611 -101 -10.4319 0.907854 -21.2692 4.13457 -21.1787 1.94332 0.133437 3.25687 3.18055e-15 3.18055e-15 -3.18055e-15 -0 -1.59028e-15 -0 -17.2277 5.50824 -10.4109 2.65225e-05 -0.00467739 0.324885 -3.18055e-15 7.95139e-16 -6.36111e-15 3.18055e-15 7.95139e-16 -3.18055e-15 -20.5435 -1.97034 -4.504 0.0316434 -0.000612625 -0.338283 -2.84366e-20 -7.95139e-16 -0.00204907 3.18055e-15 7.95139e-16 1.59028e-15 -16.2625 -6.96547 12.2381 -0.000793392 0.20923 1.45682 -0 0 1.59028e-15 7.72434e-32 -2.78299e-15 1.59028e-15 -9.34395 -6.10445 20.2505 -1.84175 -0.375003 -1.1627 -0.00122944 -1.98785e-15 -0.00123061 -1.59028e-15 -1.19271e-15 3.18055e-15 66.9217 -37.5207 63.8277 -0.92234 52.5916 3.15043 12.7315 -13.6526 -6.39848 0.614642 4.06453 0.348428 -87.3147 -67.4325 -122.508 171.211 71.1055 -173.21 10.9295 -31.7505 23.4746 0.908842 -13.0069 2.30427 
-28.7514 252.71 352.615 -58.2894 20.8978 7.29311 -1.17799 20.1747 16.0521 -1.51591 28.2239 22.6507 -1.65059 29.0996 21.2411 9.21955 9.19894 -6.36928 -6.69586 -2.2734 -12.1803 6.36111e-15 3.18055e-15 1.59028e-15 6.36111e-15 3.18055e-15 1.59028e-15 6.36111e-15 3.18055e-15 1.59028e-15 -17.4689 3.62064 -10.5844 -0.424212 -47.1811 -46.5305 -0.250361 0.59706 -51.8726 63.723 5.33263 -29.0338 8.8529 4.34781 -11.8949 3.09842 -2.32813 0.729981 -7.49549e-05 -5.46658e-16 -8.24619e-05 0 1.2424e-15 -0 5.16697 2.53577 -10.3931 -0.0558769 -0.000873666 0.459437 -1.16382e-32 -8.38623e-16 -7.95139e-16 1.04313e-32 7.51655e-16 -7.95139e-16 10.4788 -0.693892 -2.92047 -1.7924 -0.0215353 0.35276 -3.97569e-16 3.08116e-15 -1.59028e-15 7.95139e-16 6.26172e-15 -2.38542e-15 2.9094 -8.0882 6.58196 7.6338e-05 0.000876251 -0.432625 -7.95139e-16 -1.88845e-15 1.59028e-15 -1.19271e-15 1.19271e-15 -0 8.8389 -4.76923 19.1059 -1.34645 0.722432 -8.14724 1.10348e-31 1.98785e-15 -3.18055e-15 -3.97569e-16 2.18663e-15 -0 17.9795 3.87253 17.6456 6.88331 -25.438 40.095 0.200627 -0.0498389 43.1914 -91.8517 -6.23382 5.02114 -25.0763 6.48946 -20.865 2.77643 0.175912 3.39833 3.18055e-15 0 -0 3.18055e-15 0 3.18055e-15 -21.2563 5.83851 -10.2762 -0.000330001 -0.0040755 0.341156 -3.18055e-15 -7.95139e-16 3.18055e-15 -3.18055e-15 7.95139e-16 -0 -24.9064 -1.38387 -4.83735 0.0319035 9.19313e-05 -0.341377 2.82606e-20 7.95139e-16 -0.00203639 -6.36111e-15 -1.59028e-15 -0 -22.6112 -7.78885 9.90785 -0.000295182 0.172596 1.20035 3.18055e-15 0 -7.95139e-16 5.51738e-32 -1.98785e-15 1.59028e-15 -6.63904 -3.00905 19.516 -1.8975 -0.000303399 -1.86123 -0.00122448 9.93923e-16 -0.00120061 7.95139e-16 1.39149e-15 1.59028e-15 77.4131 -26.9044 73.2302 -3.57144 63.1239 7.32558 13.4312 -18.8019 -16.071 -1.26867 4.77055 -0.582189 -82.1927 -68.6288 -123.23 171.718 70.1377 -172.215 12.558 -23.3785 31.9142 0.628774 -7.68031 0.396115 
-28.9608 252.641 353.781 -61.2711 11.9624 2.99625 5.59305 21.986 19.5995 -0.466812 31.6104 20.7531 -1.04921 32.1198 19.6026 10.6118 10.3505 -6.33153 -7.77677 -5.0852 -10.9609 -3.18055e-15 3.18055e-15 -1.59028e-15 -3.18055e-15 3.18055e-15 -1.59028e-15 -3.18055e-15 3.18055e-15 -1.59028e-15 -19.057 4.7379 -13.9547 6.33014 -46.7028 -43.6043 0.0133245 0.949844 -45.7249 62.6716 4.09203 -28.7501 10.3615 4.6298 -12.3959 3.09572 -2.32467 0.728452 -7.35559e-05 -1.49089e-15 -6.63594e-05 7.95139e-16 -1.19271e-15 1.59028e-15 4.95852 2.46292 -11.4845 -0.050442 -0.000681265 0.415087 -1.98785e-16 -5.09386e-16 -7.95139e-16 1.98785e-16 -5.2181e-16 -7.95139e-16 10.6467 -0.749814 -3.72419 -1.57101 -0.0199736 0.371037 -3.97569e-16 -2.83268e-15 7.95139e-16 -7.72434e-32 -2.78299e-15 -1.59028e-15 2.59217 -7.86622 6.48065 7.44901e-05 0.000348765 -0.424293 -1.59028e-15 -2.38542e-15 -1.59028e-15 -0 -2.68359e-15 -0 8.74384 -4.72378 18.8892 -1.11968 0.704511 -8.14352 3.97569e-16 -1.78906e-15 -0 -3.97569e-16 -1.49089e-15 -0 18.0967 4.80182 23.6466 11.8162 -29.8719 35.7565 0.42341 -0.231656 44.0698 -79.3166 -0.124462 13.2232 -24.9016 7.46906 -20.2009 4.71461 0.284397 3.72683 -4.77083e-15 0 -0 -1.59028e-15 -1.98785e-15 -3.18055e-15 -21.2313 5.45464 -10.0484 -0.000105068 -0.00276952 0.382549 -4.41391e-32 -7.95139e-16 -3.18055e-15 -2.20695e-32 -3.97569e-16 -3.18055e-15 -25.0016 -1.10812 -4.79541 0.0355705 -0.000696373 -0.382169 -1.59028e-15 0 -0.00201722 1.59028e-15 -3.97569e-16 -1.59028e-15 -24.014 -7.77423 7.77433 -0.000206809 0.134009 0.82617 -3.18055e-15 -5.96354e-16 -0 -3.18055e-15 -5.96354e-16 -0 -3.89466 -0.129027 18.5564 -1.94727 0.363501 -2.53781 -0.00122801 -1.98785e-16 -0.00119035 7.95139e-16 -3.97569e-16 -0 86.0407 -16.5205 79.3105 -6.082 73.257 11.5467 14.3752 -19.426 -23.9536 -0.908365 9.51047 -0.799029 -60.9684 -68.7527 -105.4 172.043 69.5095 -171.582 12.1066 -18.592 37.1789 1.65072 -9.91501 0.374286 
